<svg width="53" height="75" viewBox="0 0 53 75" fill="none" xmlns="http://www.w3.org/2000/svg">
<path id="Vector" d="M16.8752 48.471C16.8752 48.7801 16.7836 49.0821 16.6119 49.3391C16.4402 49.596 16.1961 49.7963 15.9106 49.9146C15.6252 50.0329 15.3109 50.0638 15.0078 50.0035C14.7048 49.9432 14.4264 49.7944 14.2078 49.5758C13.9894 49.3574 13.8405 49.079 13.7802 48.7758C13.72 48.4727 13.7509 48.1585 13.8691 47.873C13.9873 47.5876 14.1877 47.3435 14.4447 47.1718C14.7016 47.0002 15.0036 46.9085 15.3127 46.9085C15.727 46.9085 16.1245 47.0732 16.4175 47.3662C16.7106 47.6591 16.8752 48.0566 16.8752 48.471ZM20.3127 46.9085C20.0036 46.9085 19.7016 47.0002 19.4447 47.1718C19.1877 47.3435 18.9873 47.5876 18.8691 47.873C18.7509 48.1585 18.72 48.4727 18.7802 48.7758C18.8405 49.079 18.9894 49.3574 19.2078 49.5758C19.4264 49.7944 19.7048 49.9432 20.0078 50.0035C20.3109 50.0638 20.6252 50.0329 20.9106 49.9146C21.1961 49.7963 21.4402 49.596 21.6119 49.3391C21.7836 49.0821 21.8752 48.7801 21.8752 48.471C21.8752 48.0566 21.7106 47.6591 21.4175 47.3662C21.1245 47.0732 20.727 46.9085 20.3127 46.9085ZM25.3127 46.9085C25.0036 46.9085 24.7016 47.0002 24.4447 47.1718C24.1877 47.3435 23.9874 47.5876 23.8691 47.873C23.7509 48.1585 23.72 48.4727 23.7802 48.7758C23.8405 49.079 23.9894 49.3574 24.2078 49.5758C24.4264 49.7944 24.7048 49.9432 25.0078 50.0035C25.3109 50.0638 25.6252 50.0329 25.9106 49.9146C26.1961 49.7963 26.4402 49.596 26.6119 49.3391C26.7836 49.0821 26.8752 48.7801 26.8752 48.471C26.8752 48.0566 26.7106 47.6591 26.4175 47.3662C26.1245 47.0732 25.727 46.9085 25.3127 46.9085ZM15.3127 56.9085C15.0036 56.9085 14.7016 57.0002 14.4447 57.1718C14.1877 57.3435 13.9873 57.5876 13.8691 57.873C13.7509 58.1585 13.72 58.4727 13.7802 58.7758C13.8405 59.079 13.9894 59.3574 14.2078 59.5758C14.4264 59.7944 14.7048 59.9432 15.0078 60.0035C15.3109 60.0638 15.6252 60.0329 15.9106 59.9146C16.1961 59.7963 16.4402 59.596 16.6119 59.3391C16.7836 59.0821 16.8752 58.7801 16.8752 58.471C16.8752 58.0566 16.7106 57.6591 16.4175 57.3662C16.1245 57.0732 15.727 56.9085 15.3127 56.9085ZM20.3127 56.9085C20.0036 56.9085 19.7016 57.0002 19.4447 57.1718C19.1877 57.3435 18.9873 57.5876 18.8691 57.873C18.7509 58.1585 18.72 58.4727 18.7802 58.7758C18.8405 59.079 18.9894 59.3574 19.2078 59.5758C19.4264 59.7944 19.7048 59.9432 20.0078 60.0035C20.3109 60.0638 20.6252 60.0329 20.9106 59.9146C21.1961 59.7963 21.4402 59.596 21.6119 59.3391C21.7836 59.0821 21.8752 58.7801 21.8752 58.471C21.8752 58.0566 21.7106 57.6591 21.4175 57.3662C21.1245 57.0732 20.727 56.9085 20.3127 56.9085ZM15.3127 66.9085C15.0036 66.9085 14.7016 67.0002 14.4447 67.1718C14.1877 67.3435 13.9873 67.5876 13.8691 67.873C13.7509 68.1585 13.72 68.4727 13.7802 68.7758C13.8405 69.079 13.9894 69.3574 14.2078 69.5758C14.4264 69.7944 14.7048 69.9432 15.0078 70.0035C15.3109 70.0638 15.6252 70.0329 15.9106 69.9146C16.1961 69.7963 16.4402 69.596 16.6119 69.3391C16.7836 69.0821 16.8752 68.7801 16.8752 68.471C16.8752 68.0566 16.7106 67.6591 16.4175 67.3661C16.1245 67.0732 15.727 66.9085 15.3127 66.9085ZM20.3127 66.9085C20.0036 66.9085 19.7016 67.0002 19.4447 67.1718C19.1877 67.3435 18.9873 67.5876 18.8691 67.873C18.7509 68.1585 18.72 68.4727 18.7802 68.7758C18.8405 69.079 18.9894 69.3574 19.2078 69.5758C19.4264 69.7944 19.7048 69.9432 20.0078 70.0035C20.3109 70.0638 20.6252 70.0329 20.9106 69.9146C21.1961 69.7963 21.4402 69.596 21.6119 69.3391C21.7836 69.0821 21.8752 68.7801 21.8752 68.471C21.8752 68.0566 21.7106 67.6591 21.4175 67.3661C21.1245 67.0732 20.727 66.9085 20.3127 66.9085ZM25.3127 66.9085C25.0036 66.9085 24.7016 67.0002 24.4447 67.1718C24.1877 67.3435 23.9874 67.5876 23.8691 67.873C23.7509 68.1585 23.72 68.4727 23.7802 68.7758C23.8405 69.079 23.9894 69.3574 24.2078 69.5758C24.4264 69.7944 24.7048 69.9432 25.0078 70.0035C25.3109 70.0638 25.6252 70.0329 25.9106 69.9146C26.1961 69.7963 26.4402 69.596 26.6119 69.3391C26.7836 69.0821 26.8752 68.7801 26.8752 68.471C26.8752 68.0566 26.7106 67.6591 26.4175 67.3661C26.1245 67.0732 25.727 66.9085 25.3127 66.9085ZM37.5002 39.721V42.221H40.6252C41.4538 42.2219 42.248 42.5515 42.8339 43.1374C43.4197 43.7232 43.7492 44.5176 43.7502 45.346V71.596C43.7492 72.4244 43.4197 73.2188 42.8339 73.8046C42.248 74.3905 41.4538 74.7201 40.6252 74.721H11.8752C11.0467 74.7201 10.2523 74.3905 9.66657 73.8046C9.08063 73.2188 8.7511 72.4244 8.75016 71.596V45.346C8.7511 44.5176 9.08063 43.7232 9.66657 43.1374C10.2523 42.5515 11.0467 42.2219 11.8752 42.221H12.5002V39.721H11.2502C10.9186 39.721 10.6008 39.5893 10.3663 39.3549C10.1319 39.1205 10.0002 38.8026 10.0002 38.471V33.4255C7.52578 33.2055 5.19938 32.1524 3.40141 30.4383C1.60333 28.7243 0.440159 26.4508 0.102096 23.9897C-0.235967 21.5288 0.271097 19.0258 1.54035 16.8905C2.80953 14.7552 4.76594 13.1137 7.08922 12.2346C7.8525 10.5065 9.0875 9.02859 10.6527 7.97065C12.2178 6.91273 14.0497 6.31762 15.9377 6.25365C17.7898 3.88039 20.2647 2.06815 23.0864 1.01898C25.9081 -0.0301752 28.9658 -0.27505 31.9186 0.311684C34.8713 0.898434 37.6031 2.2937 39.8094 4.34197C42.0155 6.39025 43.6095 9.01101 44.4136 11.9121C46.978 12.6112 49.2013 14.2174 50.6706 16.4321C52.14 18.6468 52.7556 21.3196 52.403 23.954C52.0505 26.5883 50.7536 29.0052 48.7534 30.7557C46.7533 32.506 44.1859 33.4708 41.528 33.471H40.0002V38.471C40.0002 38.8026 39.8684 39.1205 39.6341 39.3549C39.3997 39.5893 39.0817 39.721 38.7502 39.721H37.5002ZM41.2502 54.721H36.2502V62.221H41.2502V54.721ZM11.2502 62.221H28.7502V54.721H11.2502V62.221ZM15.0002 38.471V42.221H35.0002V38.471C35.0002 38.1394 35.1319 37.8215 35.3663 37.5871C35.6008 37.3527 35.9186 37.221 36.2502 37.221H37.5002V33.471H33.932L29.7611 39.2054C29.6059 39.4188 29.3872 39.5776 29.1363 39.6591C28.8853 39.7405 28.615 39.7405 28.3641 39.6591C28.1131 39.5776 27.8944 39.4187 27.7392 39.2054C27.5841 38.9919 27.5003 38.7349 27.5002 38.471V33.471H25.0002V38.471C25.0002 38.8026 24.8684 39.1205 24.6341 39.3549C24.3997 39.5893 24.0817 39.721 23.7502 39.721H18.7502C18.4186 39.721 18.1008 39.5893 17.8663 39.3549C17.6319 39.1205 17.5002 38.8026 17.5002 38.471V33.471H13.7502V37.221C14.0817 37.221 14.3997 37.3527 14.6341 37.5871C14.8684 37.8215 15.0002 38.1394 15.0002 38.471ZM20.0002 32.221V37.221H22.5002V22.3147L16.2048 30.971H18.7502C19.0817 30.971 19.3997 31.1027 19.6341 31.3371C19.8684 31.5715 20.0002 31.8894 20.0002 32.221ZM32.5002 24.721V19.721H30.0002V34.6272L36.2955 25.971H33.7502C33.4186 25.971 33.1008 25.8393 32.8663 25.6049C32.6319 25.3705 32.5002 25.0526 32.5002 24.721ZM31.2502 62.221H33.7502V54.721H31.2502V62.221ZM33.7502 44.721H31.2502V52.221H33.7502V44.721ZM10.9723 30.971C11.0188 30.9712 11.0652 30.974 11.1113 30.9791C11.1573 30.974 11.2038 30.9712 11.2502 30.971H13.1138L22.7388 17.7358C22.8939 17.5222 23.1128 17.3632 23.3639 17.2816C23.615 17.1999 23.8855 17.2001 24.1367 17.2816C24.3878 17.3633 24.6066 17.5222 24.7617 17.736C24.9169 17.9496 25.0003 18.2069 25.0002 18.471V30.971H27.5002V18.471C27.5002 18.1394 27.6319 17.8215 27.8663 17.5871C28.1008 17.3527 28.4186 17.221 28.7502 17.221H33.7502C34.0817 17.221 34.3997 17.3527 34.6341 17.5871C34.8684 17.8215 35.0002 18.1394 35.0002 18.471V23.471H38.7502C38.9808 23.471 39.2069 23.5347 39.4034 23.6552C39.6 23.7758 39.7594 23.9483 39.8641 24.1538C39.9688 24.3593 40.0144 24.5896 39.9963 24.8194C39.9781 25.0493 39.8967 25.2697 39.7611 25.4562L35.7502 30.971H41.5278C43.6338 30.971 45.6642 30.1866 47.2233 28.7708C48.7822 27.3551 49.7581 25.4094 49.9605 23.3133C50.163 21.2171 49.5775 19.1207 48.3181 17.4327C47.0588 15.7449 45.2159 14.5865 43.1489 14.1835C42.9102 14.1372 42.69 14.0224 42.5156 13.8529C42.3411 13.6835 42.2198 13.4668 42.1667 13.2294C41.5841 10.6426 40.2659 8.27939 38.3713 6.4244C36.4764 4.56942 34.0858 3.30179 31.4872 2.77418C28.8884 2.24658 26.1928 2.4815 23.7245 3.45065C21.2564 4.41981 19.1211 6.08186 17.5756 8.23662C17.455 8.40328 17.2953 8.53781 17.1106 8.62843C16.9259 8.71906 16.7219 8.76303 16.5163 8.75647L16.4766 8.75506C16.4013 8.7524 16.3261 8.74928 16.2502 8.74928C14.7158 8.75292 13.2192 9.22529 11.9608 10.1032C10.7022 10.981 9.74203 12.2224 9.20875 13.6612C9.14297 13.8402 9.03704 14.0018 8.89907 14.1337C8.7611 14.2654 8.59469 14.364 8.41282 14.4215C6.48532 15.033 4.83985 16.3138 3.77422 18.0326C2.70844 19.7512 2.2925 21.7944 2.60157 23.7929C2.91063 25.7915 3.92438 27.6135 5.45954 28.9299C6.99469 30.2465 8.95016 30.9704 10.9723 30.971ZM11.2502 52.221H28.7502V44.721H11.8752C11.7094 44.721 11.5505 44.7868 11.4333 44.9041C11.3161 45.0213 11.2502 45.1802 11.2502 45.346V52.221ZM11.8752 72.221H28.7502V64.721H11.2502V71.596C11.2502 71.7618 11.3161 71.9207 11.4333 72.0379C11.5505 72.1552 11.7094 72.221 11.8752 72.221ZM31.2502 72.221H33.7502V64.721H31.2502V72.221ZM41.2502 64.721H36.2502V72.221H40.6252C40.7909 72.221 40.9498 72.1552 41.0672 72.0379C41.1844 71.9207 41.2502 71.7618 41.2502 71.596V64.721ZM40.6252 44.721H36.2502V52.221H41.2502V45.346C41.2502 45.1802 41.1844 45.0213 41.0672 44.9041C40.9498 44.7868 40.7909 44.721 40.6252 44.721Z" fill="#451179"/>
</svg>
